<?xml version="1.0" encoding="UTF-8"?>
<!DOCTYPE svg PUBLIC "-//W3C//DTD SVG 1.1//EN" "http://www.w3.org/Graphics/SVG/1.1/DTD/svg11.dtd">
<svg version="1.2" width="250mm" height="120mm" viewBox="0 0 25000 12000" preserveAspectRatio="xMidYMid" fill-rule="evenodd" clip-path="url(#presentation_clip_path)" stroke-width="28.222" stroke-linejoin="round" xmlns="http://www.w3.org/2000/svg" xmlns:ooo="http://xml.openoffice.org/svg/export" xmlns:xlink="http://www.w3.org/1999/xlink" xml:space="preserve">
 <defs class="ClipPathGroup">
  <clipPath id="presentation_clip_path" clipPathUnits="userSpaceOnUse">
   <rect x="0" y="0" width="25000" height="12000"/>
  </clipPath>
 </defs>
 <defs class="TextShapeIndex">
  <g ooo:slide="id1" ooo:id-list="id3 id4 id5 id6 id7 id8 id9 id10 id11 id12 id13 id14 id15 id16 id17 id18 id19 id20 id21"/>
 </defs>
 <defs class="EmbeddedBulletChars">
  <g id="bullet-char-template(57356)" transform="scale(0.00048828125,-0.00048828125)">
   <path d="M 580,1141 L 1163,571 580,0 -4,571 580,1141 Z"/>
  </g>
  <g id="bullet-char-template(57354)" transform="scale(0.00048828125,-0.00048828125)">
   <path d="M 8,1128 L 1137,1128 1137,0 8,0 8,1128 Z"/>
  </g>
  <g id="bullet-char-template(10146)" transform="scale(0.00048828125,-0.00048828125)">
   <path d="M 174,0 L 602,739 174,1481 1456,739 174,0 Z M 1358,739 L 309,1346 659,739 1358,739 Z"/>
  </g>
  <g id="bullet-char-template(10132)" transform="scale(0.00048828125,-0.00048828125)">
   <path d="M 2015,739 L 1276,0 717,0 1260,543 174,543 174,936 1260,936 717,1481 1274,1481 2015,739 Z"/>
  </g>
  <g id="bullet-char-template(10007)" transform="scale(0.00048828125,-0.00048828125)">
   <path d="M 0,-2 C -7,14 -16,27 -25,37 L 356,567 C 262,823 215,952 215,954 215,979 228,992 255,992 264,992 276,990 289,987 310,991 331,999 354,1012 L 381,999 492,748 772,1049 836,1024 860,1049 C 881,1039 901,1025 922,1006 886,937 835,863 770,784 769,783 710,716 594,584 L 774,223 C 774,196 753,168 711,139 L 727,119 C 717,90 699,76 672,76 641,76 570,178 457,381 L 164,-76 C 142,-110 111,-127 72,-127 30,-127 9,-110 8,-76 1,-67 -2,-52 -2,-32 -2,-23 -1,-13 0,-2 Z"/>
  </g>
  <g id="bullet-char-template(10004)" transform="scale(0.00048828125,-0.00048828125)">
   <path d="M 285,-33 C 182,-33 111,30 74,156 52,228 41,333 41,471 41,549 55,616 82,672 116,743 169,778 240,778 293,778 328,747 346,684 L 369,508 C 377,444 397,411 428,410 L 1163,1116 C 1174,1127 1196,1133 1229,1133 1271,1133 1292,1118 1292,1087 L 1292,965 C 1292,929 1282,901 1262,881 L 442,47 C 390,-6 338,-33 285,-33 Z"/>
  </g>
  <g id="bullet-char-template(9679)" transform="scale(0.00048828125,-0.00048828125)">
   <path d="M 813,0 C 632,0 489,54 383,161 276,268 223,411 223,592 223,773 276,916 383,1023 489,1130 632,1184 813,1184 992,1184 1136,1130 1245,1023 1353,916 1407,772 1407,592 1407,412 1353,268 1245,161 1136,54 992,0 813,0 Z"/>
  </g>
  <g id="bullet-char-template(8226)" transform="scale(0.00048828125,-0.00048828125)">
   <path d="M 346,457 C 273,457 209,483 155,535 101,586 74,649 74,723 74,796 101,859 155,911 209,963 273,989 346,989 419,989 480,963 531,910 582,859 608,796 608,723 608,648 583,586 532,535 482,483 420,457 346,457 Z"/>
  </g>
  <g id="bullet-char-template(8211)" transform="scale(0.00048828125,-0.00048828125)">
   <path d="M -4,459 L 1135,459 1135,606 -4,606 -4,459 Z"/>
  </g>
 </defs>
 <defs class="TextEmbeddedBitmaps"/>
 <g>
  <g id="id2" class="Master_Slide">
   <g id="bg-id2" class="Background"/>
   <g id="bo-id2" class="BackgroundObjects"/>
  </g>
 </g>
 <g class="SlideGroup">
  <g>
   <g id="id1" class="Slide" clip-path="url(#presentation_clip_path)">
    <g class="Page">
     <g class="com.sun.star.drawing.CustomShape">
      <g id="id3">
       <path fill="none" stroke="rgb(0,0,0)" d="M 9500,2000 L 7000,2000 7000,1000 12000,1000 12000,2000 9500,2000 Z"/>
       <text class="TextShape"><tspan class="TextParagraph" font-family="Open Sans, sans-serif" font-size="423px" font-weight="400"><tspan class="TextPosition" x="8116" y="1665"><tspan fill="rgb(0,0,0)" stroke="none">AppController</tspan></tspan></tspan></text>
      </g>
     </g>
     <g class="com.sun.star.drawing.CustomShape">
      <g id="id4">
       <path fill="none" stroke="rgb(0,0,0)" d="M 9500,5000 L 7000,5000 7000,4000 12000,4000 12000,5000 9500,5000 Z"/>
       <text class="TextShape"><tspan class="TextParagraph" font-family="Open Sans, sans-serif" font-size="423px" font-weight="400"><tspan class="TextPosition" x="8412" y="4665"><tspan fill="rgb(0,0,0)" stroke="none">Workspace</tspan></tspan></tspan></text>
      </g>
     </g>
     <g class="com.sun.star.drawing.ConnectorShape">
      <g id="id5">
       <path fill="none" stroke="rgb(0,0,0)" d="M 9500,4000 L 9500,2580"/>
       <path fill="rgb(0,0,0)" stroke="none" d="M 9500,2000 L 9650,2300 9500,2600 9350,2300 9500,2000 Z"/>
      </g>
     </g>
     <g class="com.sun.star.drawing.CustomShape">
      <g id="id6">
       <path fill="none" stroke="rgb(0,0,0)" d="M 9500,8000 L 7000,8000 7000,7000 12000,7000 12000,8000 9500,8000 Z"/>
       <text class="TextShape"><tspan class="TextParagraph" font-family="Open Sans, sans-serif" font-size="423px" font-weight="400"><tspan class="TextPosition" x="8795" y="7665"><tspan fill="rgb(0,0,0)" stroke="none">Canvas</tspan></tspan></tspan></text>
      </g>
     </g>
     <g class="com.sun.star.drawing.CustomShape">
      <g id="id7">
       <path fill="none" stroke="rgb(0,0,0)" d="M 15500,2000 L 13000,2000 13000,1000 18000,1000 18000,2000 15500,2000 Z"/>
       <text class="TextShape"><tspan class="TextParagraph" font-family="Open Sans, sans-serif" font-size="423px" font-weight="400"><tspan class="TextPosition" x="14143" y="1665"><tspan fill="rgb(0,0,0)" stroke="none">AppExtension</tspan></tspan></tspan></text>
      </g>
     </g>
     <g class="com.sun.star.drawing.CustomShape">
      <g id="id8">
       <path fill="none" stroke="rgb(0,0,0)" d="M 15500,5000 L 13000,5000 13000,4000 18000,4000 18000,5000 15500,5000 Z"/>
       <text class="TextShape"><tspan class="TextParagraph" font-family="Open Sans, sans-serif" font-size="423px" font-weight="400"><tspan class="TextPosition" x="13449" y="4665"><tspan fill="rgb(0,0,0)" stroke="none">WorkspaceExtension</tspan></tspan></tspan></text>
      </g>
     </g>
     <g class="com.sun.star.drawing.CustomShape">
      <g id="id9">
       <path fill="none" stroke="rgb(0,0,0)" d="M 15500,8000 L 13000,8000 13000,7000 18000,7000 18000,8000 15500,8000 Z"/>
       <text class="TextShape"><tspan class="TextParagraph" font-family="Open Sans, sans-serif" font-size="423px" font-weight="400"><tspan class="TextPosition" x="13832" y="7665"><tspan fill="rgb(0,0,0)" stroke="none">CanvasExtension</tspan></tspan></tspan></text>
      </g>
     </g>
     <g class="com.sun.star.drawing.CustomShape">
      <g id="id10">
       <path fill="none" stroke="rgb(0,0,0)" d="M 9500,11000 L 7000,11000 7000,10000 12000,10000 12000,11000 9500,11000 Z"/>
       <text class="TextShape"><tspan class="TextParagraph" font-family="Open Sans, sans-serif" font-size="423px" font-weight="400"><tspan class="TextPosition" x="9075" y="10665"><tspan fill="rgb(0,0,0)" stroke="none">Tool</tspan></tspan></tspan></text>
      </g>
     </g>
     <g class="com.sun.star.drawing.CustomShape">
      <g id="id11">
       <path fill="none" stroke="rgb(0,0,0)" d="M 3500,8000 L 1000,8000 1000,7000 6000,7000 6000,8000 3500,8000 Z"/>
       <text class="TextShape"><tspan class="TextParagraph" font-family="Open Sans, sans-serif" font-size="423px" font-weight="400"><tspan class="TextPosition" x="2467" y="7665"><tspan fill="rgb(0,0,0)" stroke="none">Document</tspan></tspan></tspan></text>
      </g>
     </g>
     <g class="com.sun.star.drawing.ConnectorShape">
      <g id="id12">
       <path fill="none" stroke="rgb(0,0,0)" d="M 9500,7000 L 9500,5580"/>
       <path fill="rgb(0,0,0)" stroke="none" d="M 9500,5000 L 9650,5300 9500,5600 9350,5300 9500,5000 Z"/>
      </g>
     </g>
     <g class="com.sun.star.drawing.ConnectorShape">
      <g id="id13">
       <path fill="none" stroke="rgb(0,0,0)" d="M 9500,10000 L 9500,8580"/>
       <path fill="rgb(0,0,0)" stroke="none" d="M 9500,8000 L 9650,8300 9500,8600 9350,8300 9500,8000 Z"/>
      </g>
     </g>
     <g class="com.sun.star.drawing.ConnectorShape">
      <g id="id14">
       <path fill="none" stroke="rgb(0,0,0)" d="M 13000,7500 L 12580,7500"/>
       <path fill="rgb(0,0,0)" stroke="none" d="M 12000,7500 L 12300,7350 12600,7500 12300,7650 12000,7500 Z"/>
      </g>
     </g>
     <g class="com.sun.star.drawing.ConnectorShape">
      <g id="id15">
       <path fill="none" stroke="rgb(0,0,0)" d="M 13000,4500 L 12580,4500"/>
       <path fill="rgb(0,0,0)" stroke="none" d="M 12000,4500 L 12300,4350 12600,4500 12300,4650 12000,4500 Z"/>
      </g>
     </g>
     <g class="com.sun.star.drawing.ConnectorShape">
      <g id="id16">
       <path fill="none" stroke="rgb(0,0,0)" d="M 13000,1500 L 12580,1500"/>
       <path fill="rgb(0,0,0)" stroke="none" d="M 12000,1500 L 12300,1350 12600,1500 12300,1650 12000,1500 Z"/>
      </g>
     </g>
     <g class="com.sun.star.drawing.ConnectorShape">
      <g id="id17">
       <path fill="none" stroke="rgb(0,0,0)" d="M 6000,7500 L 6420,7500"/>
       <path fill="rgb(0,0,0)" stroke="none" d="M 7000,7500 L 6700,7650 6400,7500 6700,7350 7000,7500 Z M 6955,7500 L 6700,7372 6445,7500 6700,7628 6955,7500 Z"/>
      </g>
     </g>
     <g class="com.sun.star.drawing.CustomShape">
      <g id="id18">
       <path fill="none" stroke="rgb(0,0,0)" d="M 21500,5000 L 19000,5000 19000,4000 24000,4000 24000,5000 21500,5000 Z"/>
       <text class="TextShape"><tspan class="TextParagraph" font-family="Open Sans, sans-serif" font-size="423px" font-weight="400"><tspan class="TextPosition" x="20537" y="4665"><tspan fill="rgb(0,0,0)" stroke="none">Extension</tspan></tspan></tspan></text>
      </g>
     </g>
     <g class="com.sun.star.drawing.ConnectorShape">
      <g id="id19">
       <path fill="none" stroke="rgb(0,0,0)" d="M 18000,4500 L 18720,4500"/>
       <path fill="rgb(0,0,0)" stroke="none" d="M 19000,4500 L 18700,4650 18700,4350 19000,4500 Z M 18955,4500 L 18720,4382 18720,4618 18955,4500 Z"/>
      </g>
     </g>
     <g class="com.sun.star.drawing.ConnectorShape">
      <g id="id20">
       <path fill="none" stroke="rgb(0,0,0)" d="M 18000,7500 L 21500,7500 21500,5280"/>
       <path fill="rgb(0,0,0)" stroke="none" d="M 21500,5000 L 21650,5300 21350,5300 21500,5000 Z M 21500,5045 L 21382,5280 21618,5280 21500,5045 Z"/>
      </g>
     </g>
     <g class="com.sun.star.drawing.ConnectorShape">
      <g id="id21">
       <path fill="none" stroke="rgb(0,0,0)" d="M 18000,1500 L 21500,1500 21500,3720"/>
       <path fill="rgb(0,0,0)" stroke="none" d="M 21500,4000 L 21350,3700 21650,3700 21500,4000 Z M 21500,3955 L 21618,3720 21382,3720 21500,3955 Z"/>
      </g>
     </g>
    </g>
   </g>
  </g>
 </g>
</svg>