<?xml version="1.0" encoding="UTF-8"?>
<!DOCTYPE svg PUBLIC "-//W3C//DTD SVG 1.1//EN" "http://www.w3.org/Graphics/SVG/1.1/DTD/svg11.dtd">
<svg version="1.2" width="80mm" height="80mm" viewBox="0 0 8000 8000" preserveAspectRatio="xMidYMid" fill-rule="evenodd" clip-path="url(#presentation_clip_path)" stroke-width="28.222" stroke-linejoin="round" xmlns="http://www.w3.org/2000/svg" xmlns:ooo="http://xml.openoffice.org/svg/export" xmlns:xlink="http://www.w3.org/1999/xlink" xml:space="preserve">
 <defs class="ClipPathGroup">
  <clipPath id="presentation_clip_path" clipPathUnits="userSpaceOnUse">
   <rect x="0" y="0" width="8000" height="8000"/>
  </clipPath>
 </defs>
 <defs class="TextShapeIndex">
  <g ooo:slide="id1" ooo:id-list="id3 id4 id5 id6 id7 id8 id9 id10 id11 id12 id13 id14 id15 id16 id17 id18 id19 id20 id21 id22 id23 id24 id25 id26 id27 id28 id29 id30 id31 id32 id33 id34 id35 id36 id37 id38 id39 id40 id41 id42 id43 id44 id45 id46 id47 id48 id49 id50 id51 id52 id53 id54 id55 id56 id57 id58 id59 id60 id61 id62 id63 id64 id65 id66 id67 id68 id69 id70 id71 id72"/>
 </defs>
 <defs class="EmbeddedBulletChars">
  <g id="bullet-char-template(57356)" transform="scale(0.00048828125,-0.00048828125)">
   <path d="M 580,1141 L 1163,571 580,0 -4,571 580,1141 Z"/>
  </g>
  <g id="bullet-char-template(57354)" transform="scale(0.00048828125,-0.00048828125)">
   <path d="M 8,1128 L 1137,1128 1137,0 8,0 8,1128 Z"/>
  </g>
  <g id="bullet-char-template(10146)" transform="scale(0.00048828125,-0.00048828125)">
   <path d="M 174,0 L 602,739 174,1481 1456,739 174,0 Z M 1358,739 L 309,1346 659,739 1358,739 Z"/>
  </g>
  <g id="bullet-char-template(10132)" transform="scale(0.00048828125,-0.00048828125)">
   <path d="M 2015,739 L 1276,0 717,0 1260,543 174,543 174,936 1260,936 717,1481 1274,1481 2015,739 Z"/>
  </g>
  <g id="bullet-char-template(10007)" transform="scale(0.00048828125,-0.00048828125)">
   <path d="M 0,-2 C -7,14 -16,27 -25,37 L 356,567 C 262,823 215,952 215,954 215,979 228,992 255,992 264,992 276,990 289,987 310,991 331,999 354,1012 L 381,999 492,748 772,1049 836,1024 860,1049 C 881,1039 901,1025 922,1006 886,937 835,863 770,784 769,783 710,716 594,584 L 774,223 C 774,196 753,168 711,139 L 727,119 C 717,90 699,76 672,76 641,76 570,178 457,381 L 164,-76 C 142,-110 111,-127 72,-127 30,-127 9,-110 8,-76 1,-67 -2,-52 -2,-32 -2,-23 -1,-13 0,-2 Z"/>
  </g>
  <g id="bullet-char-template(10004)" transform="scale(0.00048828125,-0.00048828125)">
   <path d="M 285,-33 C 182,-33 111,30 74,156 52,228 41,333 41,471 41,549 55,616 82,672 116,743 169,778 240,778 293,778 328,747 346,684 L 369,508 C 377,444 397,411 428,410 L 1163,1116 C 1174,1127 1196,1133 1229,1133 1271,1133 1292,1118 1292,1087 L 1292,965 C 1292,929 1282,901 1262,881 L 442,47 C 390,-6 338,-33 285,-33 Z"/>
  </g>
  <g id="bullet-char-template(9679)" transform="scale(0.00048828125,-0.00048828125)">
   <path d="M 813,0 C 632,0 489,54 383,161 276,268 223,411 223,592 223,773 276,916 383,1023 489,1130 632,1184 813,1184 992,1184 1136,1130 1245,1023 1353,916 1407,772 1407,592 1407,412 1353,268 1245,161 1136,54 992,0 813,0 Z"/>
  </g>
  <g id="bullet-char-template(8226)" transform="scale(0.00048828125,-0.00048828125)">
   <path d="M 346,457 C 273,457 209,483 155,535 101,586 74,649 74,723 74,796 101,859 155,911 209,963 273,989 346,989 419,989 480,963 531,910 582,859 608,796 608,723 608,648 583,586 532,535 482,483 420,457 346,457 Z"/>
  </g>
  <g id="bullet-char-template(8211)" transform="scale(0.00048828125,-0.00048828125)">
   <path d="M -4,459 L 1135,459 1135,606 -4,606 -4,459 Z"/>
  </g>
 </defs>
 <defs class="TextEmbeddedBitmaps"/>
 <g>
  <g id="id2" class="Master_Slide">
   <g id="bg-id2" class="Background"/>
   <g id="bo-id2" class="BackgroundObjects"/>
  </g>
 </g>
 <g class="SlideGroup">
  <g>
   <g id="id1" class="Slide" clip-path="url(#presentation_clip_path)">
    <g class="Page">
     <g class="com.sun.star.drawing.CustomShape">
      <g id="id3">
       <path fill="none" stroke="rgb(0,0,0)" d="M 2000,3000 L 1000,3000 1000,1000 3000,1000 3000,3000 2000,3000 Z"/>
      </g>
     </g>
     <g class="Group">
      <g class="Group">
       <g class="com.sun.star.drawing.CustomShape">
        <g id="id4">
         <path fill="none" stroke="rgb(0,0,0)" d="M 4000,3000 L 3000,3000 3000,1000 5000,1000 5000,3000 4000,3000 Z"/>
        </g>
       </g>
       <g class="com.sun.star.drawing.LineShape">
        <g id="id5">
         <path fill="none" stroke="rgb(0,0,0)" d="M 3500,1000 L 3000,1500"/>
        </g>
       </g>
       <g class="com.sun.star.drawing.LineShape">
        <g id="id6">
         <path fill="none" stroke="rgb(0,0,0)" d="M 4000,1000 L 3000,2000"/>
        </g>
       </g>
       <g class="com.sun.star.drawing.LineShape">
        <g id="id7">
         <path fill="none" stroke="rgb(0,0,0)" d="M 4500,1000 L 3000,2500"/>
        </g>
       </g>
       <g class="com.sun.star.drawing.LineShape">
        <g id="id8">
         <path fill="none" stroke="rgb(0,0,0)" d="M 5000,1000 L 3000,3000"/>
        </g>
       </g>
       <g class="com.sun.star.drawing.LineShape">
        <g id="id9">
         <path fill="none" stroke="rgb(0,0,0)" d="M 5000,1500 L 3500,3000"/>
        </g>
       </g>
       <g class="com.sun.star.drawing.LineShape">
        <g id="id10">
         <path fill="none" stroke="rgb(0,0,0)" d="M 5000,2000 L 4000,3000"/>
        </g>
       </g>
       <g class="com.sun.star.drawing.LineShape">
        <g id="id11">
         <path fill="none" stroke="rgb(0,0,0)" d="M 5000,2500 L 4500,3000"/>
        </g>
       </g>
       <g class="com.sun.star.drawing.CustomShape">
        <g id="id12">
         <path fill="none" stroke="rgb(0,0,0)" d="M 4000,3000 L 3000,3000 3000,1000 5000,1000 5000,3000 4000,3000 Z"/>
        </g>
       </g>
       <g class="com.sun.star.drawing.LineShape">
        <g id="id13">
         <path fill="none" stroke="rgb(0,0,0)" d="M 3500,1000 L 3000,1500"/>
        </g>
       </g>
       <g class="com.sun.star.drawing.LineShape">
        <g id="id14">
         <path fill="none" stroke="rgb(0,0,0)" d="M 4000,1000 L 3000,2000"/>
        </g>
       </g>
       <g class="com.sun.star.drawing.LineShape">
        <g id="id15">
         <path fill="none" stroke="rgb(0,0,0)" d="M 4500,1000 L 3000,2500"/>
        </g>
       </g>
       <g class="com.sun.star.drawing.LineShape">
        <g id="id16">
         <path fill="none" stroke="rgb(0,0,0)" d="M 5000,1000 L 3000,3000"/>
        </g>
       </g>
       <g class="com.sun.star.drawing.LineShape">
        <g id="id17">
         <path fill="none" stroke="rgb(0,0,0)" d="M 5000,1500 L 3500,3000"/>
        </g>
       </g>
       <g class="com.sun.star.drawing.LineShape">
        <g id="id18">
         <path fill="none" stroke="rgb(0,0,0)" d="M 5000,2000 L 4000,3000"/>
        </g>
       </g>
       <g class="com.sun.star.drawing.LineShape">
        <g id="id19">
         <path fill="none" stroke="rgb(0,0,0)" d="M 5000,2500 L 4500,3000"/>
        </g>
       </g>
      </g>
     </g>
     <g class="Group">
      <g class="Group">
       <g class="com.sun.star.drawing.CustomShape">
        <g id="id20">
         <path fill="none" stroke="rgb(0,0,0)" d="M 4000,5000 L 3000,5000 3000,3000 5000,3000 5000,5000 4000,5000 Z"/>
        </g>
       </g>
       <g class="com.sun.star.drawing.LineShape">
        <g id="id21">
         <path fill="none" stroke="rgb(0,0,0)" d="M 3500,3000 L 3000,3500"/>
        </g>
       </g>
       <g class="com.sun.star.drawing.LineShape">
        <g id="id22">
         <path fill="none" stroke="rgb(0,0,0)" d="M 4000,3000 L 3000,4000"/>
        </g>
       </g>
       <g class="com.sun.star.drawing.LineShape">
        <g id="id23">
         <path fill="none" stroke="rgb(0,0,0)" d="M 4500,3000 L 3000,4500"/>
        </g>
       </g>
       <g class="com.sun.star.drawing.LineShape">
        <g id="id24">
         <path fill="none" stroke="rgb(0,0,0)" d="M 5000,3000 L 3000,5000"/>
        </g>
       </g>
       <g class="com.sun.star.drawing.LineShape">
        <g id="id25">
         <path fill="none" stroke="rgb(0,0,0)" d="M 5000,3500 L 3500,5000"/>
        </g>
       </g>
       <g class="com.sun.star.drawing.LineShape">
        <g id="id26">
         <path fill="none" stroke="rgb(0,0,0)" d="M 5000,4000 L 4000,5000"/>
        </g>
       </g>
       <g class="com.sun.star.drawing.LineShape">
        <g id="id27">
         <path fill="none" stroke="rgb(0,0,0)" d="M 5000,4500 L 4500,5000"/>
        </g>
       </g>
       <g class="com.sun.star.drawing.CustomShape">
        <g id="id28">
         <path fill="none" stroke="rgb(0,0,0)" d="M 4000,5000 L 3000,5000 3000,3000 5000,3000 5000,5000 4000,5000 Z"/>
        </g>
       </g>
       <g class="com.sun.star.drawing.LineShape">
        <g id="id29">
         <path fill="none" stroke="rgb(0,0,0)" d="M 3500,3000 L 3000,3500"/>
        </g>
       </g>
       <g class="com.sun.star.drawing.LineShape">
        <g id="id30">
         <path fill="none" stroke="rgb(0,0,0)" d="M 4000,3000 L 3000,4000"/>
        </g>
       </g>
       <g class="com.sun.star.drawing.LineShape">
        <g id="id31">
         <path fill="none" stroke="rgb(0,0,0)" d="M 4500,3000 L 3000,4500"/>
        </g>
       </g>
       <g class="com.sun.star.drawing.LineShape">
        <g id="id32">
         <path fill="none" stroke="rgb(0,0,0)" d="M 5000,3000 L 3000,5000"/>
        </g>
       </g>
       <g class="com.sun.star.drawing.LineShape">
        <g id="id33">
         <path fill="none" stroke="rgb(0,0,0)" d="M 5000,3500 L 3500,5000"/>
        </g>
       </g>
       <g class="com.sun.star.drawing.LineShape">
        <g id="id34">
         <path fill="none" stroke="rgb(0,0,0)" d="M 5000,4000 L 4000,5000"/>
        </g>
       </g>
       <g class="com.sun.star.drawing.LineShape">
        <g id="id35">
         <path fill="none" stroke="rgb(0,0,0)" d="M 5000,4500 L 4500,5000"/>
        </g>
       </g>
      </g>
     </g>
     <g class="Group">
      <g class="Group">
       <g class="com.sun.star.drawing.CustomShape">
        <g id="id36">
         <path fill="none" stroke="rgb(0,0,0)" d="M 2000,5000 L 1000,5000 1000,3000 3000,3000 3000,5000 2000,5000 Z"/>
        </g>
       </g>
       <g class="com.sun.star.drawing.LineShape">
        <g id="id37">
         <path fill="none" stroke="rgb(0,0,0)" d="M 1500,3000 L 1000,3500"/>
        </g>
       </g>
       <g class="com.sun.star.drawing.LineShape">
        <g id="id38">
         <path fill="none" stroke="rgb(0,0,0)" d="M 2000,3000 L 1000,4000"/>
        </g>
       </g>
       <g class="com.sun.star.drawing.LineShape">
        <g id="id39">
         <path fill="none" stroke="rgb(0,0,0)" d="M 2500,3000 L 1000,4500"/>
        </g>
       </g>
       <g class="com.sun.star.drawing.LineShape">
        <g id="id40">
         <path fill="none" stroke="rgb(0,0,0)" d="M 3000,3000 L 1000,5000"/>
        </g>
       </g>
       <g class="com.sun.star.drawing.LineShape">
        <g id="id41">
         <path fill="none" stroke="rgb(0,0,0)" d="M 3000,3500 L 1500,5000"/>
        </g>
       </g>
       <g class="com.sun.star.drawing.LineShape">
        <g id="id42">
         <path fill="none" stroke="rgb(0,0,0)" d="M 3000,4000 L 2000,5000"/>
        </g>
       </g>
       <g class="com.sun.star.drawing.LineShape">
        <g id="id43">
         <path fill="none" stroke="rgb(0,0,0)" d="M 3000,4500 L 2500,5000"/>
        </g>
       </g>
       <g class="com.sun.star.drawing.CustomShape">
        <g id="id44">
         <path fill="none" stroke="rgb(0,0,0)" d="M 2000,5000 L 1000,5000 1000,3000 3000,3000 3000,5000 2000,5000 Z"/>
        </g>
       </g>
       <g class="com.sun.star.drawing.LineShape">
        <g id="id45">
         <path fill="none" stroke="rgb(0,0,0)" d="M 1500,3000 L 1000,3500"/>
        </g>
       </g>
       <g class="com.sun.star.drawing.LineShape">
        <g id="id46">
         <path fill="none" stroke="rgb(0,0,0)" d="M 2000,3000 L 1000,4000"/>
        </g>
       </g>
       <g class="com.sun.star.drawing.LineShape">
        <g id="id47">
         <path fill="none" stroke="rgb(0,0,0)" d="M 2500,3000 L 1000,4500"/>
        </g>
       </g>
       <g class="com.sun.star.drawing.LineShape">
        <g id="id48">
         <path fill="none" stroke="rgb(0,0,0)" d="M 3000,3000 L 1000,5000"/>
        </g>
       </g>
       <g class="com.sun.star.drawing.LineShape">
        <g id="id49">
         <path fill="none" stroke="rgb(0,0,0)" d="M 3000,3500 L 1500,5000"/>
        </g>
       </g>
       <g class="com.sun.star.drawing.LineShape">
        <g id="id50">
         <path fill="none" stroke="rgb(0,0,0)" d="M 3000,4000 L 2000,5000"/>
        </g>
       </g>
       <g class="com.sun.star.drawing.LineShape">
        <g id="id51">
         <path fill="none" stroke="rgb(0,0,0)" d="M 3000,4500 L 2500,5000"/>
        </g>
       </g>
      </g>
     </g>
     <g class="Group">
      <g class="Group">
       <g class="com.sun.star.drawing.CustomShape">
        <g id="id52">
         <path fill="none" stroke="rgb(0,0,0)" d="M 2000,7000 L 1000,7000 1000,5000 3000,5000 3000,7000 2000,7000 Z"/>
        </g>
       </g>
       <g class="com.sun.star.drawing.LineShape">
        <g id="id53">
         <path fill="none" stroke="rgb(0,0,0)" d="M 1500,5000 L 1000,5500"/>
        </g>
       </g>
       <g class="com.sun.star.drawing.LineShape">
        <g id="id54">
         <path fill="none" stroke="rgb(0,0,0)" d="M 2000,5000 L 1000,6000"/>
        </g>
       </g>
       <g class="com.sun.star.drawing.LineShape">
        <g id="id55">
         <path fill="none" stroke="rgb(0,0,0)" d="M 2500,5000 L 1000,6500"/>
        </g>
       </g>
       <g class="com.sun.star.drawing.LineShape">
        <g id="id56">
         <path fill="none" stroke="rgb(0,0,0)" d="M 3000,5000 L 1000,7000"/>
        </g>
       </g>
       <g class="com.sun.star.drawing.LineShape">
        <g id="id57">
         <path fill="none" stroke="rgb(0,0,0)" d="M 3000,5500 L 1500,7000"/>
        </g>
       </g>
       <g class="com.sun.star.drawing.LineShape">
        <g id="id58">
         <path fill="none" stroke="rgb(0,0,0)" d="M 3000,6000 L 2000,7000"/>
        </g>
       </g>
       <g class="com.sun.star.drawing.LineShape">
        <g id="id59">
         <path fill="none" stroke="rgb(0,0,0)" d="M 3000,6500 L 2500,7000"/>
        </g>
       </g>
       <g class="com.sun.star.drawing.CustomShape">
        <g id="id60">
         <path fill="none" stroke="rgb(0,0,0)" d="M 2000,7000 L 1000,7000 1000,5000 3000,5000 3000,7000 2000,7000 Z"/>
        </g>
       </g>
       <g class="com.sun.star.drawing.LineShape">
        <g id="id61">
         <path fill="none" stroke="rgb(0,0,0)" d="M 1500,5000 L 1000,5500"/>
        </g>
       </g>
       <g class="com.sun.star.drawing.LineShape">
        <g id="id62">
         <path fill="none" stroke="rgb(0,0,0)" d="M 2000,5000 L 1000,6000"/>
        </g>
       </g>
       <g class="com.sun.star.drawing.LineShape">
        <g id="id63">
         <path fill="none" stroke="rgb(0,0,0)" d="M 2500,5000 L 1000,6500"/>
        </g>
       </g>
       <g class="com.sun.star.drawing.LineShape">
        <g id="id64">
         <path fill="none" stroke="rgb(0,0,0)" d="M 3000,5000 L 1000,7000"/>
        </g>
       </g>
       <g class="com.sun.star.drawing.LineShape">
        <g id="id65">
         <path fill="none" stroke="rgb(0,0,0)" d="M 3000,5500 L 1500,7000"/>
        </g>
       </g>
       <g class="com.sun.star.drawing.LineShape">
        <g id="id66">
         <path fill="none" stroke="rgb(0,0,0)" d="M 3000,6000 L 2000,7000"/>
        </g>
       </g>
       <g class="com.sun.star.drawing.LineShape">
        <g id="id67">
         <path fill="none" stroke="rgb(0,0,0)" d="M 3000,6500 L 2500,7000"/>
        </g>
       </g>
      </g>
     </g>
     <g class="com.sun.star.drawing.CustomShape">
      <g id="id68">
       <path fill="none" stroke="rgb(0,0,0)" d="M 4000,7000 L 3000,7000 3000,5000 5000,5000 5000,7000 4000,7000 Z"/>
      </g>
     </g>
     <g class="com.sun.star.drawing.CustomShape">
      <g id="id69">
       <path fill="none" stroke="rgb(0,0,0)" d="M 6000,3000 L 5000,3000 5000,1000 7000,1000 7000,3000 6000,3000 Z"/>
      </g>
     </g>
     <g class="com.sun.star.drawing.CustomShape">
      <g id="id70">
       <path fill="none" stroke="rgb(0,0,0)" d="M 6000,7000 L 5000,7000 5000,5000 7000,5000 7000,7000 6000,7000 Z"/>
      </g>
     </g>
     <g class="com.sun.star.drawing.OpenFreeHandShape">
      <g id="id71">
       <path fill="none" stroke="rgb(0,0,0)" stroke-width="500" d="M 1905,6464 C 2087,5454 2106,4235 2980,3539 3168,3389 3494,3080 3712,3302 3958,3552 3962,3988 3798,4335 3639,4672 2915,4744 3281,4012 3544,3487 3694,2870 4142,2463 L 4335,2248 4464,2098"/>
      </g>
     </g>
     <g class="com.sun.star.drawing.CustomShape">
      <g id="id72">
       <path fill="none" stroke="rgb(0,0,0)" d="M 6000,5000 L 5000,5000 5000,3000 7000,3000 7000,5000 6000,5000 Z"/>
      </g>
     </g>
    </g>
   </g>
  </g>
 </g>
</svg>